<svg xmlns="http://www.w3.org/2000/svg" xmlns:xlink="http://www.w3.org/1999/xlink" viewBox="0 0 37 46.25" version="1.1" x="0px" y="0px"><title>svg/014-AUS--Australia</title><desc>Created with Sketch.</desc><g stroke="none" stroke-width="1" fill="none" fill-rule="evenodd"><g transform="translate(-341.000000, -92.000000)"><g transform="translate(340.500000, 91.500000)" fill="#000000" fill-rule="nonzero"><g><polygon points="18.5 18.5 18.5 1 19.5 1 19.5 19.5 1 19.5 1 18.5"/><path d="M19,37.5 C8.78273213,37.5 0.5,29.2172679 0.5,19 C0.5,8.78273213 8.78273213,0.5 19,0.5 C29.2172679,0.5 37.5,8.78273213 37.5,19 C37.5,29.2172679 29.2172679,37.5 19,37.5 Z M19,36.5 C28.6649831,36.5 36.5,28.6649831 36.5,19 C36.5,9.33501688 28.6649831,1.5 19,1.5 C9.33501688,1.5 1.5,9.33501688 1.5,19 C1.5,28.6649831 9.33501688,36.5 19,36.5 Z"/><path d="M9,11 L9,18.5 L11,18.5 L11,11 L18.5,11 L18.5,9 L11,9 L11,3.43136936 C10.3073173,3.78804592 9.63919772,4.19079203 9,4.63666981 L9,9 L4.63666981,9 C4.19079203,9.63919772 3.78804592,10.3073173 3.43136936,11 L9,11 Z M8,12 L1.85249627,12 L2.17770316,11.2914352 C2.67505112,10.2078073 3.2763717,9.17536297 3.97225407,8.2080156 L4.12189462,8 L8,8 L8,4.12189462 L8.2080156,3.97225407 C9.17536297,3.2763717 10.2078073,2.67505112 11.2914352,2.17770316 L12,1.85249627 L12,8 L19.5,8 L19.5,12 L12,12 L12,19.5 L8,19.5 L8,12 Z"/><polygon points="11.8535534 8.85355339 11.1464466 8.14644661 18.6464466 0.646446609 19.3535534 1.35355339"/><polygon points="11.1464466 11.8535534 11.8535534 11.1464466 19.3535534 18.6464466 18.6464466 19.3535534"/><polygon points="8.85355339 8.14644661 8.14644661 8.85355339 5.91386932 6.6209761 6.6209761 5.91386932"/><polygon points="8.14644661 11.1464466 8.85355339 11.8535534 1.35355339 19.3535534 0.646446609 18.6464466"/></g><path d="M28.5,10 L28.8506391,11.1236196 L29.9216168,10.7055968 L29.2878787,11.6887048 L30.2727273,12.2910585 L29.1318298,12.3933544 L29.2889379,13.5625 L28.5,12.706953 L27.7110621,13.5625 L27.8681702,12.3933544 L26.7272727,12.2910585 L27.7121213,11.6887048 L27.0783832,10.7055968 L28.1493609,11.1236196 L28.5,10 L28.5,10 L28.5,10 Z M33.2272727,14.75 L33.5779118,15.8736196 L34.6488896,15.4555968 L34.0151514,16.4387048 L35,17.0410585 L33.8591025,17.1433544 L34.0162106,18.3125 L33.2272727,17.456953 L32.4383348,18.3125 L32.5954429,17.1433544 L31.4545455,17.0410585 L32.439394,16.4387048 L31.8056559,15.4555968 L32.8766337,15.8736196 L33.2272727,14.75 L33.2272727,14.75 L33.2272727,14.75 Z M23.7727273,15.9375 L24.1233663,17.0611196 L25.1943441,16.6430968 L24.560606,17.6262048 L25.5454545,18.2285585 L24.4045571,18.3308544 L24.5616652,19.5 L23.7727273,18.644453 L22.9837894,19.5 L23.1408975,18.3308544 L22,18.2285585 L22.9848486,17.6262048 L22.3511104,16.6430968 L23.4220882,17.0611196 L23.7727273,15.9375 L23.7727273,15.9375 L23.7727273,15.9375 Z M28.5,25.4375 L28.8506391,26.5611196 L29.9216168,26.1430968 L29.2878787,27.1262048 L30.2727273,27.7285585 L29.1318298,27.8308545 L29.2889379,29 L28.5,28.144453 L27.7110621,29 L27.8681702,27.8308545 L26.7272727,27.7285585 L27.7121213,27.1262048 L27.0783832,26.1430968 L28.1493609,26.5611196 L28.5,25.4375 L28.5,25.4375 L28.5,25.4375 Z M30.2727273,19.5 L30.5380347,20.4193466 L31.4545455,20.4193466 L30.7309511,20.9812191 L30.9962901,21.875 L30.2727273,21.3131593 L29.5491645,21.8494343 L29.8144719,20.9812191 L29.0909091,20.4193466 L29.9832895,20.4193466 L30.2727273,19.5 L30.2727273,19.5 L30.2727273,19.5 Z"/><path d="M10.189389,27.3274933 C10.1201545,27.5482931 9.87857361,27.664459 9.66287587,27.580671 L8.70142383,27.2071937 L9.28017027,28.1006982 C9.40265298,28.2897946 9.34487275,28.5426932 9.15242292,28.6598363 L8.2463525,29.2113562 L9.28809352,29.3043146 C9.51520157,29.3245803 9.67945426,29.5302957 9.6489441,29.7562556 L9.50785597,30.801162 L10.2065911,30.047059 C10.3648924,29.8762139 10.6351076,29.8762139 10.7934089,30.047059 L11.492144,30.801162 L11.3510559,29.7562556 C11.3205457,29.5302957 11.4847984,29.3245803 11.7119065,29.3043146 L12.7536475,29.2113562 L11.8475771,28.6598363 C11.6551273,28.5426932 11.597347,28.2897946 11.7198297,28.1006982 L12.2985762,27.2071937 L11.3371241,27.580671 C11.1214264,27.664459 10.8798455,27.5482931 10.810611,27.3274933 L10.5,26.3369057 L10.189389,27.3274933 Z M10.1183236,24.8803207 C10.235521,24.5065598 10.764479,24.5065598 10.8816764,24.8803207 L11.4460285,26.6801289 L13.1619453,26.0135789 C13.5236741,25.8730648 13.8534762,26.2781884 13.6425079,26.6038943 L12.6149127,28.1903593 L14.2079785,29.1600494 C14.5376738,29.3607331 14.4199949,29.8658407 14.0355522,29.9001459 L12.1998621,30.0639513 L12.4540493,31.9464759 C12.5063156,32.3335627 12.0297147,32.5583796 11.7642377,32.2718662 L10.5,30.90745 L9.23576234,32.2718662 C8.97028534,32.5583796 8.49368438,32.3335627 8.54595065,31.9464759 L8.80013788,30.0639513 L6.9644478,29.9001459 C6.58000515,29.8658407 6.46232616,29.3607331 6.79202155,29.1600494 L8.38508733,28.1903593 L7.35749213,26.6038943 C7.14652383,26.2781884 7.47632585,25.8730648 7.8380547,26.0135789 L9.55397149,26.6801289 L10.1183236,24.8803207 Z"/></g></g></g><text x="0" y="52" fill="#000000" font-size="5px" font-weight="bold" font-family="'Helvetica Neue', Helvetica, Arial-Unicode, Arial, Sans-serif">Created by Xinh Studio</text><text x="0" y="57" fill="#000000" font-size="5px" font-weight="bold" font-family="'Helvetica Neue', Helvetica, Arial-Unicode, Arial, Sans-serif">from the Noun Project</text></svg>